<?xml version="1.0" encoding="utf-8"?>
<!-- Generator: Adobe Illustrator 19.0.0, SVG Export Plug-In . SVG Version: 6.00 Build 0)  -->
<svg version="1.1" id="katman_1" xmlns="http://www.w3.org/2000/svg" xmlns:xlink="http://www.w3.org/1999/xlink" x="0px" y="0px"
	 viewBox="-138 287 881 328" style="enable-background:new -138 287 881 328;" xml:space="preserve">
<style type="text/css">
	.st0{fill:#2F7AEA;}
	.st1{fill:#FFFFFF;}
	.st2{fill:#94A6C3;}
	.st3{fill:#1B314F;}
	.st4{fill:#FFD923;}
	.st5{fill:#D82122;}
</style>
<path d="M211.9,368.1h33.5V502h33.5V334.6h-33.5C227,334.6,211.9,349.6,211.9,368.1z"/>
<path d="M312.3,501.9h33.5V435c0-18.4-15.1-33.5-33.5-33.5V501.9z"/>
<path d="M379.3,401.5v100.4h33.5V435h33.5v33.5c0,18.4,15.1,33.5,33.5,33.5v-67c0-18.4-15.1-33.5-33.5-33.5H379.3z"/>
<path d="M680.5,401.5H647V368c0-18.4-15.1-33.5-33.5-33.5v133.9h-66.9V435h33.5v-33.5h-33.5c-18.4,0-33.5,15.1-33.5,33.5v33.5
	c0,18.4,15.1,33.5,33.5,33.5H647v-67h33.5v33.5c0,18.4,15.1,33.5,33.5,33.5v-67C714,416.6,698.9,401.5,680.5,401.5z"/>
<path d="M312.3,368.1h33.5c0-18.4-15.1-33.5-33.5-33.5V368.1z"/>
<path class="st0" d="M259.2,558.5h-13.9v-22.7h13.5v3.7h-9.4v5.6h8.4v3.7h-8.4v5.9h9.8V558.5z"/>
<path class="st0" d="M320.1,535.8h4.8l-7.9,11.1l8.2,11.6h-4.8l-6.1-8.5l-6,8.5h-4.8l8.2-11.6l-7.8-11.1h4.8l5.7,8.2L320.1,535.8z"
	/>
<path class="st0" d="M385.5,553.3l1.6,3c-0.7,0.8-1.8,1.4-3.2,1.8c-1.4,0.5-2.8,0.7-4.3,0.7c-3.6,0-6.5-1.1-8.7-3.2s-3.3-5-3.3-8.5
	c0-3.4,1.1-6.2,3.2-8.4c2.1-2.2,5-3.3,8.8-3.3c3,0,5.4,0.8,7.1,2.3l-1.8,3c-1.6-1-3.3-1.5-5.3-1.5c-2.2,0-4.1,0.7-5.5,2.2
	c-1.4,1.4-2.1,3.4-2.1,5.8c0,2.4,0.7,4.3,2.2,5.8s3.5,2.2,5.8,2.2C382,555.1,383.9,554.5,385.5,553.3z"/>
<path class="st0" d="M451.9,558.5h-4.1v-9.7h-10.7v9.7H433v-22.7h4.1v9.3h10.7v-9.3h4.1L451.9,558.5L451.9,558.5z"/>
<path class="st0" d="M501.3,558.5h-4.1l9.9-22.8h3.6l9.9,22.8h-4.4l-2.4-5.8h-10L501.3,558.5z M512.1,549l-3.4-8.1l-3.4,8.1H512.1z"
	/>
<path class="st0" d="M585.8,535.8v22.7h-3.3l-12.9-15.7v15.7h-3.8v-22.7h3.3l12.9,15.8v-15.8H585.8z"/>
<path class="st0" d="M649.4,550h-5.7v-3.7h9.5v9.4c-1,1-2.3,1.8-4,2.3c-1.7,0.6-3.3,0.8-4.7,0.8c-3.8,0-6.8-1.1-9-3.2
	c-2.2-2.1-3.2-4.9-3.2-8.5c0-3.3,1.1-6.1,3.2-8.3c2.1-2.2,5-3.4,8.5-3.4c3,0,5.5,0.8,7.5,2.3l-1.7,3.2c-0.6-0.5-1.4-1-2.3-1.3
	c-1-0.3-1.9-0.5-3-0.5c-2.3,0-4.2,0.7-5.7,2.1c-1.4,1.4-2.2,3.4-2.2,5.8c0,2.4,0.7,4.3,2.2,5.8c1.4,1.4,3.3,2.2,5.8,2.2
	c0.8,0,1.8-0.2,2.7-0.5c1-0.3,1.7-0.7,2.1-1.1L649.4,550L649.4,550z"/>
<path class="st0" d="M714,558.5h-13.9v-22.7h13.5v3.7h-9.4v5.6h8.4v3.7h-8.4v5.9h9.8L714,558.5L714,558.5z"/>
<path class="st1" d="M-45.1,466l7.8-58.8l-67.9-47.2l62,21l14.6-22.5l53.5-33.2l117.9,64.9l6.1,99.1l-52.5,73l-41.5,6.3l21.5-39.3
	v-37.8L60.8,462l-15.9-10.5l-24.4,25.1v26.6L1.5,521l-24.2,2.9l-10.7,6.1l-17.6-5.6l-7.3-26.4l13.2-18.5L-45.1,466L-45.1,466z"/>
<path class="st2" d="M63.2,359.6c-12.9-2.7-27.1-2-27.1-2s-4.6,21.5-33.4,27.1C2.9,384.7,40.8,397.6,63.2,359.6z"/>
<path class="st2" d="M74.9,554.3c15.6-12.2,27.3-29,32.7-48.1c0.2-0.7,2.4-2,3.9-2.9c2.4-1.5,4.9-2.7,5.4-4.6
	c1-5.6,1.5-11.5,1.5-17.3c0-2.2-2.2-4.4-4.4-6.6c-1.7-1.5-3.4-3.2-3.4-4.4c-2.4-22.2-12.7-43-29-58.1l-1.7,1.7
	c15.9,14.9,26.1,35.1,28.3,56.6c0.2,2,2.2,3.9,4.1,5.9c1.7,1.5,3.7,3.7,3.7,4.6c0,5.6-0.5,11.2-1.5,16.8c-0.2,1-2.4,2-4.1,2.9
	c-2.4,1.2-4.6,2.4-5.1,4.4C99.4,525.9,86,544,68.2,555.7c3.2-6.8,13.2-29,18.5-40.3l-1-36.1l-31-30l-17.6,2.4l-19.3,31.2
	c0,0,9,11.5-3.7,24.9C1.7,521-8.1,523.9-8.1,523.9l-9-4.9c2.7-3.4,8.1-8.5,12.2-12c7.1-5.9,14.2-6.3,14.2-12.7
	c0.2-13.2-13.9-9.5-13.9-9.5l-5.1,4.9l-2.2,18.1l-10.7,13.4l-1.2-0.2l-17.6-3.9c0,0,10.7-5.6,12.4-12c1.7-6.1-3.4-26.4-3.7-27.6
	c0.2,0.2,5.1,4.4,7.3,11.2c3.9-10.7,9-21,10.5-22s21.2-11.5,21.2-11.5l-6.6,17.3l4.9-2.7L16.3,441c0,0,11.5-5.6,20-5.6
	c15.4-0.2,38.1-19,27.8-52.7c2.9,1.2,53.7,26.6,62.5,76.4C133.3,497.7,111.6,533.6,74.9,554.3z"/>
<path class="st3" d="M16.9,364.9c5.6-6.6,3.4-16.4,3.4-16.4L3.9,372.7C3.7,372.7,9.8,373,16.9,364.9z"/>
<path class="st3" d="M-38.1,497l2-9.8c0,0-8.1,14.2-8.8,16.1c-0.7,2.2,0.5,6.1,3.7,5.9s7.1-4.9,7.1-8.3
	C-34.2,496.5-38.1,497-38.1,497z"/>
<path class="st3" d="M106.9,341.7c0,0,12.2,0.5,24.9,2c-28.6-22.5-55.6-29-77.6-29c-30.3,0-50.8,12.4-52,13.2l9.5-15.1
	c0,0-38.1-3.7-51.5,36.6c-3.4-8.5-6.6-21-6.6-21s-19.8,17.3-10.5,46.1c-22.7-8.3-55.2-19.8-56.4-20c-1.7-0.2-2.2,0.5-2.2,0.5
	s-0.5,0.7,1,2c2.7,2.2,53.9,40,65.2,47.4c-2.4,8.8-2.4,12.9,0,17.1c3.4,5.6,3.7,8.5,3.2,12.7c-0.5,4.1-4.9,40-5.9,44.4
	s-11.2,20-10.7,24.7c0.5,4.6,6.8,24.4,12.4,26.6c4.1,1.5,14.4,4.6,21.2,4.6c2.4,0,4.6-0.5,5.6-1.5c4.1-3.7,5.4-4.4,8.3-4.4
	c0.2,0,0.5,0,0.7,0c1.2,0,2.7,0.2,4.4,0.2c3.9,0,9-0.7,12.7-4.1c5.4-5.4,14.6-12.7,17.6-16.1c3.7-4.6,5.6-11,4.6-17.3
	c-0.7-5.9,2.4-11,6.1-16.1c4.6-6.1,13.2-17.1,13.2-17.1c16.8,12.7,27.3,32,27.3,53.5c0,38.1-33.2,68.8-74.2,68.8
	c-6.3,0-12.4-0.7-18.5-2.2c18.8,6.6,34.7,8.8,47.6,8.8c27.6,0,42.2-10,42.2-10s-5.1,6.6-13.4,14.2c0.2,0,0.2,0,0.2,0
	c45.6-6.3,67.9-43.9,67.9-43.9s-1.7,12.2-3.9,20.5c60.8-45.6,50.5-102.8,50.3-104.7c0.5,0.7,6.6,8.1,9.8,12
	C189.2,374.2,106.9,341.7,106.9,341.7z M13.4,502.3c-1,1.2-5.1,4.9-8.1,7.6c-2.9,2.7-6.1,5.4-8.5,7.8c-1,1-2.9,1.5-5.9,1.5
	c-1,0-2,0-2.7,0c-0.5,0-1,0-1.5,0s-0.7,0-1,0c-0.7,0-1.5,0-2.2,0c3.7-4.9,14.4-16.1,18.1-18.5c4.4-2.9,6.6-5.9,3.9-11
	c-2.7-5.1-9.8-3.9-9.8-3.9s4.1-1.7,7.8-1.7c-4.6-1.2-10.5,0-13.2,2.7c-2.9,2.7-2.4,12.2-3.7,18.3c-1.2,6.3-5.4,9.5-11.7,15.4
	c-3.4,3.2-5.9,4.1-7.8,4.1c-4.1-0.7-9-2-12.4-3.2c-2.4-3.2-6.1-13.7-7.1-18.1c0.7-2.4,3.7-7.6,5.1-10.5c2.9-5.6,4.6-8.8,5.1-11.7
	c1-4.1,4.1-29.8,5.4-40.5c3.2,4.1,7.6,11,6.6,15.4c7.1-10,2-19.8-0.5-23.7c-2.2-3.9-5.1-11.7-2.7-20s11.2-31.2,11.2-31.2
	s2.9,5.1,7.1,4.1c4.1-1,37.6-51.3,37.6-51.3s9,19.8-0.5,34.2c-9.8,14.4-19.3,17.1-19.3,17.1s13.4,2.4,25.9-6.6
	c5.1,12,10,24.4,10.3,26.1c-0.7,1.7-10.5,25.1-11.5,26.6c-0.5,0.5-3.9,1.5-6.3,2c-4.1,1.2-6.6,2-7.6,2.7
	c-1.7,1.5-9.5,22.9-13.2,33.4c-4.4,1.2-8.8,3.7-12,8.5c1.7-1.2,7.1-2,11-2.4c3.4-0.2,13.9,5.4,16.6,15.9c0,0.2,0,0.2,0,0.5
	C16.6,495.8,15.4,499.4,13.4,502.3z M-9.5,505.3c2.2-3.2,2-8.5,2.2-10.3c0.2-1.7,0.7-4.9,2.7-5.4s6.6,0.2,6.6,3.7
	c0,3.2-3.4,3.9-5.9,6.1C-5.6,501.1-9,504.8-9.5,505.3z M87.9,458.7c2.4-12.4,2.7-23.2,2-32c9.5,12.7,15.4,28.1,17.1,43.9
	c0.2,2,2.2,3.9,4.1,5.9c1.7,1.5,3.7,3.4,3.7,4.6c0,5.6-0.5,11.2-1.5,16.8c-0.2,0.7-2.4,2-4.1,2.9c-2.4,1.2-4.6,2.4-5.1,4.4
	c-5.4,18.8-16.8,35.4-32.2,47.1C94.5,528.7,105.5,489.7,87.9,458.7z M72.5,554.6c15.9-12.2,28.1-29.3,33.4-48.6
	c0.2-0.7,2.4-2,3.9-2.9c2.4-1.2,4.9-2.7,5.4-4.6c1-5.6,1.5-11.5,1.5-17.3c0-2.2-2.2-4.4-4.4-6.6c-1.2-1.5-3.2-3.2-3.2-4.4
	c-2-17.8-9-34.7-20-48.6c-4.9-29.3-24.4-38.3-24.9-38.6c0.5,0.7,13.2,19,4.4,40.5c-9,21.7-32.2,18.3-34.2,18.5c-2,0-9.5,9.8-19,27.8
	c-1.2-0.5-6.3-1.7-12.2-0.7c4.4-12.2,11-29.5,12.2-31c0.5-0.5,4.1-1.5,6.6-2.2c4.6-1.2,6.8-2,7.6-2.9c0.5-0.7,2.9-6.3,5.4-12.2
	c2.2,0,7.8-0.5,8.3-0.7c0.5-0.5,5.1-12.4,5.1-13.9c0-1.2-9.5-24.9-13.2-33.9c1.7-2,3.4-4.4,5.1-7.1c50,5.4,89.1,47.8,89.1,99.3
	C129.4,504.1,106.2,538.5,72.5,554.6z"/>
<path class="st3" d="M7.6,422.8c4.6-5.4,2.2-15.4-6.3-17.1c2.2-5.1,5.4-15.4,5.4-15.4s-24.9,39.1-27.1,39.8
	c-2.2,0.7-4.4-7.8-4.4-7.8c-4.6,17.8,7.8,20.3,9.3,14.6C-8.8,435.2,2.9,427.9,7.6,422.8z"/>
<path class="st4" d="M-13.6,432.3l12.7-21.7c0,0,7.3,3.7,3.7,9.5C-1.9,426.9-13.6,432.3-13.6,432.3z"/>
<path class="st5" d="M143.3,532.9c-3.7,4.9-7.8,10-12.7,14.9c31.5-60.5,1.5-115.9,0.2-118.1c2.2,2.2,4.4,4.6,6.3,6.8
	C161.4,463.3,164.3,503.6,143.3,532.9z"/>
<path class="st5" d="M172.6,455c-11-29.5-26.6-54.7-61-77.4c-33.2-22-68.8-20.3-70.8-20c-0.2,0-0.5,0-0.5,0c1.2-0.5,2.4-0.7,3.7-1
	c7.6-2.4,17.3-4.4,27.1-5.6c25.9-3.7,52,5.1,69.8,23.9c0.2,0.2,0.2,0.2,0.5,0.5C161.6,396.9,172.1,423.8,172.6,455z"/>
<path class="st5" d="M103.7,334.2c-36.4-6.8-59.8-3.4-76.6,2.9c-0.5-2-2.2-5.9-3.7-9c-5.1,6.1-10.5,13.4-13.9,18.1
	c-9.3,6.3-13.2,12.4-13.2,12.4c5.4-18.3,21-32,40-35.4c5.4-1,11.2-1.5,17.6-1.5C70.8,322,87.6,326.1,103.7,334.2z"/>
<path class="st5" d="M-30.7,381c-28.6-1-19-34.2-18.5-36.1C-49.3,345.2-47.3,371-30.7,381z"/>
<path class="st5" d="M-2.7,321.2c-22,13.2-17.6,44.7-17.6,44.7C-41.2,333.9-4.4,322-2.7,321.2z"/>
<path class="st1" d="M-38.8,389.8c1.5,1.2,2.9,3.4,1.2,6.6c-1,1.7-2.4,1.5-4.6,0.5c-2.9-1.5-20.5-11.7-36.4-22.2
	c18.1,6.3,36.4,13.2,39.3,14.6C-39.3,389.3-39,389.6-38.8,389.8z"/>
</svg>
