<?xml version="1.0" encoding="utf-8"?>
<!-- Generator: Adobe Illustrator 19.0.0, SVG Export Plug-In . SVG Version: 6.00 Build 0)  -->
<svg version="1.1" id="Layer_1" xmlns="http://www.w3.org/2000/svg" xmlns:xlink="http://www.w3.org/1999/xlink" x="0px" y="0px"
	 viewBox="223.6 302.1 939 181.5" style="enable-background:new 223.6 302.1 939 181.5;" xml:space="preserve">
<style type="text/css">
	.st0{fill:#010101;}
	.st1{fill:#623312;}
	.st2{fill:#FDDC90;}
	.st3{fill:#D1884E;}
</style>
<g>
	<path class="st0" d="M419.6,433.7c-2.1,0-3.5-0.4-4.4-1.3c-0.8-0.9-1.2-2.2-1.2-4.1v-62.2c0-1.9,0.4-3.2,1.3-4.1s2.3-1.4,4.3-1.4
		h26.3c10,0,17.4,2.1,22.1,6.3c4.7,4.2,7.1,10.5,7.1,18.9c0,8.3-2.4,14.6-7.1,18.8s-12,6.2-22.1,6.2h-10.2v17.4
		c0,1.9-0.4,3.2-1.3,4.1c-0.9,0.9-2.3,1.3-4.4,1.3h-10.4V433.7z M444.2,395.4c2.9,0,5.2-0.8,6.8-2.4s2.5-3.9,2.5-7.1
		s-0.8-5.6-2.5-7.2c-1.6-1.6-3.8-2.4-6.8-2.4h-8.5v19h8.5V395.4z"/>
	<path class="st0" d="M500.5,435.3c-6.7,0-12.1-2.1-16.2-6.4c-4-4.4-6-10.5-6-18.4c0-6,1.4-11.3,4.1-15.8c2.8-4.5,6.7-8,11.7-10.4
		c5.1-2.5,10.9-3.8,17.5-3.8c5.4,0,10.2,0.6,14.4,1.8c4.2,1.1,8.1,2.8,11.6,5.1v43c0,1.4-0.3,2.3-0.8,2.7s-1.5,0.6-3,0.6h-11
		c-0.8,0-1.4-0.1-1.8-0.3c-0.4-0.3-0.8-0.7-1.1-1.3l-1.4-3.2c-2.1,2.2-4.6,3.8-7.5,4.8C508.2,434.8,504.7,435.3,500.5,435.3z
		 M508.6,420.7c2.8,0,5-0.7,6.6-2c1.6-1.4,2.4-3.3,2.4-5.8v-16.8c-1.4-0.6-3.1-1-5.2-1c-3.8,0-6.8,1.3-9.1,4
		c-2.2,2.7-3.3,6.4-3.3,11.2C499.9,417.2,502.8,420.7,508.6,420.7z"/>
	<path class="st0" d="M552.6,433.7c-2.1,0-3.5-0.4-4.4-1.3c-0.9-0.9-1.3-2.2-1.3-4.1v-42.9c0-1.3,0.2-2.1,0.6-2.6
		c0.5-0.5,1.5-0.8,3-0.8h11.1c0.9,0,1.5,0.1,1.9,0.4c0.5,0.2,0.8,0.6,0.9,1.3l0.5,3.2c2-2,4.6-3.6,7.8-4.7c3.3-1.2,6.9-1.8,11-1.8
		c5.8,0,10.5,1.6,14.1,4.9c3.6,3.2,5.4,8,5.4,14.4v28.5c0,1.9-0.4,3.2-1.3,4.1c-0.8,0.9-2.2,1.3-4.3,1.3h-10.4
		c-2.1,0-3.6-0.4-4.5-1.3c-0.9-0.9-1.3-2.2-1.3-4.1v-27.1c0-2.1-0.5-3.7-1.4-4.6c-0.9-0.9-2.4-1.4-4.4-1.4c-2.1,0-3.9,0.6-5.2,1.7
		c-1.2,1.1-1.8,2.7-1.8,4.7v26.6c0,1.9-0.4,3.2-1.3,4.1c-0.8,0.9-2.2,1.3-4.3,1.3h-10.4V433.7z"/>
	<path class="st0" d="M641.2,435.3c-10,0-17.8-2.3-23.2-7c-5.4-4.7-8.2-11.4-8.2-20.3c0-5.4,1.3-10.2,3.8-14.4
		c2.5-4.2,6.1-7.4,10.9-9.7c4.8-2.3,10.5-3.4,17-3.4c4.9,0,9.1,0.5,12.5,1.4c3.4,0.9,6.5,2.4,9.1,4.3c0.8,0.5,1.2,1.1,1.2,1.9
		c0,0.6-0.3,1.3-0.9,2.3L659,398c-0.5,1-1.1,1.5-1.8,1.5c-0.4,0-1.1-0.3-2-0.9c-1.9-1.2-3.8-2.1-5.5-2.7c-1.6-0.6-3.7-0.9-6.2-0.9
		c-3.6,0-6.5,1.1-8.7,3.4c-2.1,2.3-3.2,5.4-3.2,9.5c0,4.1,1.1,7.2,3.3,9.5c2.2,2.1,5.3,3.2,9.1,3.2c2.3,0,4.4-0.3,6.2-1
		c1.9-0.6,3.8-1.5,5.7-2.7c1-0.6,1.7-0.9,2.1-0.9c0.6,0,1.2,0.5,1.7,1.5l4.8,8.3c0.4,0.7,0.5,1.3,0.5,1.7c0,0.6-0.4,1.3-1.3,1.8
		c-3,1.9-6.3,3.4-9.9,4.3C650.3,434.8,646.1,435.3,641.2,435.3z"/>
	<path class="st0" d="M692.3,435.3c-6.7,0-12.1-2.1-16.2-6.4c-4-4.4-6-10.5-6-18.4c0-6,1.4-11.3,4.1-15.8c2.8-4.5,6.7-8,11.7-10.4
		c5.1-2.5,10.9-3.8,17.5-3.8c5.4,0,10.2,0.6,14.4,1.8c4.2,1.1,8.1,2.8,11.6,5.1v43c0,1.4-0.3,2.3-0.8,2.7s-1.5,0.6-3,0.6h-11
		c-0.8,0-1.4-0.1-1.8-0.3c-0.4-0.3-0.8-0.7-1.1-1.3l-1.4-3.2c-2.1,2.2-4.6,3.8-7.5,4.8C699.9,434.8,696.4,435.3,692.3,435.3z
		 M700.3,420.7c2.8,0,5-0.7,6.6-2c1.6-1.4,2.4-3.3,2.4-5.8v-16.8c-1.4-0.6-3.1-1-5.2-1c-3.8,0-6.8,1.3-9.1,4
		c-2.2,2.7-3.3,6.4-3.3,11.2C691.6,417.2,694.5,420.7,700.3,420.7z"/>
	<path class="st0" d="M796.8,429.6c0.5,0.6,0.8,1.2,0.8,1.9c0,0.6-0.2,1.2-0.6,1.6c-0.4,0.4-1,0.5-1.7,0.5h-16.7
		c-1,0-1.8-0.1-2.3-0.2c-0.4-0.2-0.9-0.6-1.4-1.2l-14.6-19.9v15.9c0,1.9-0.4,3.2-1.3,4.1c-0.9,0.9-2.3,1.3-4.4,1.3h-10.4
		c-2.1,0-3.5-0.4-4.4-1.3c-0.8-0.9-1.2-2.2-1.2-4.1V366c0-1.9,0.4-3.2,1.3-4.1c0.9-0.9,2.3-1.4,4.3-1.4h10.4c2.1,0,3.5,0.5,4.4,1.4
		s1.3,2.2,1.3,4.1v36l14.2-18.5c0.4-0.6,0.9-1,1.4-1.2s1.3-0.3,2.3-0.3h16.7c0.7,0,1.3,0.2,1.6,0.6c0.4,0.4,0.6,0.9,0.6,1.5
		c0,0.7-0.3,1.4-0.8,1.9l-18.4,21.1L796.8,429.6z"/>
	<path class="st0" d="M831.7,435.3c-6,0-11.4-1-16.1-3c-4.7-2-8.3-5-11.1-9c-2.7-4-4.1-8.9-4.1-14.7c0-9.1,2.6-16,7.7-20.8
		s12.6-7.2,22.2-7.2c9.5,0,16.6,2.4,21.5,7.1s7.4,11.1,7.4,19.4c0,3.6-1.6,5.4-4.7,5.4h-33.7c0,3.1,1.1,5.4,3.4,7.1
		c2.4,1.6,5.9,2.5,10.6,2.5c2.9,0,5.4-0.3,7.3-0.8c2-0.6,4-1.4,6-2.5c0.9-0.4,1.4-0.5,1.7-0.5c0.6,0,1.2,0.4,1.6,1.3l3.7,6.9
		c0.4,0.7,0.5,1.3,0.5,1.6c0,0.6-0.4,1.3-1.3,1.8c-2.9,1.9-6.3,3.3-10,4.2C840.8,434.9,836.5,435.3,831.7,435.3z M840,401.8
		c0-2.7-0.8-4.8-2.4-6.3c-1.6-1.5-3.9-2.3-7.1-2.3c-3.1,0-5.5,0.8-7.2,2.4c-1.6,1.5-2.5,3.6-2.5,6.2L840,401.8L840,401.8z"/>
	<path class="st0" d="M896.2,435.3c-6,0-11.7-0.6-17.1-1.8c-5.4-1.3-9.7-3.1-13-5.4c-1.2-0.8-1.8-1.6-1.8-2.5c0-0.6,0.2-1.2,0.6-1.8
		l5.3-8.4c0.6-0.9,1.2-1.3,1.7-1.3c0.4,0,1,0.3,1.8,0.8c2.6,1.5,5.7,2.7,9,3.7c3.4,0.9,6.7,1.4,10,1.4c3.4,0,5.8-0.5,7.4-1.5
		c1.6-1,2.5-2.6,2.5-4.8c0-2.1-0.9-3.8-2.7-5.1c-1.7-1.2-5-2.8-9.8-4.6c-7.2-2.7-12.9-5.8-17-9.1c-4-3.4-6-8.1-6-14
		c0-7.1,2.5-12.5,7.6-16.2s11.9-5.6,20.3-5.6c5.9,0,10.9,0.5,15,1.6c4.2,1,7.8,2.6,10.7,4.7c1.2,0.9,1.8,1.8,1.8,2.6
		c0,0.5-0.2,1.1-0.6,1.7l-5.3,8.4c-0.6,0.9-1.2,1.3-1.7,1.3c-0.4,0-1-0.3-1.8-0.8c-4.2-2.7-9.1-4.1-14.8-4.1c-3.1,0-5.4,0.5-7.1,1.5
		c-1.6,1-2.5,2.7-2.5,4.9c0,1.6,0.4,2.9,1.3,3.9c0.9,1,2,1.9,3.4,2.7c1.5,0.7,3.8,1.6,6.9,2.8l2,0.8c5.3,2.1,9.5,4.1,12.5,6
		c3.1,1.9,5.4,4.2,7,7c1.6,2.7,2.4,6.2,2.4,10.3c0,6.4-2.4,11.5-7.2,15.3C912.4,433.4,905.4,435.3,896.2,435.3z"/>
	<path class="st0" d="M947.1,433.7c-1.1,0-1.9-0.2-2.5-0.5c-0.6-0.4-1-1.1-1.3-2.1l-13.9-46.4c-0.1-0.4-0.2-0.8-0.2-1
		c0-1,0.7-1.5,2.1-1.5h14.2c0.9,0,1.6,0.2,2,0.5s0.7,0.8,0.9,1.5l5.8,24.4l7.3-19.7c0.4-0.9,0.7-1.4,1.1-1.7
		c0.4-0.4,1.1-0.5,2.1-0.5h6.8c1,0,1.7,0.2,2,0.5c0.4,0.3,0.8,0.9,1.2,1.7l7.2,19.7l5.9-24.4c0.2-0.7,0.5-1.2,0.9-1.5
		c0.4-0.4,1-0.5,1.9-0.5h14.3c1.4,0,2.1,0.5,2.1,1.5c0,0.2-0.1,0.5-0.2,1L993,431c-0.3,1.1-0.7,1.8-1.3,2.1
		c-0.5,0.4-1.3,0.5-2.4,0.5h-10.5c-1,0-1.8-0.2-2.3-0.5c-0.5-0.4-0.9-1.1-1.3-2.1l-7.1-19.4L961,431c-0.3,1-0.7,1.7-1.3,2.1
		c-0.5,0.4-1.3,0.5-2.3,0.5h-10.3V433.7z"/>
	<path class="st0" d="M1034.4,435.3c-6.7,0-12.1-2.1-16.2-6.4c-4-4.4-6-10.5-6-18.4c0-6,1.4-11.3,4.1-15.8c2.8-4.5,6.7-8,11.7-10.4
		c5.1-2.5,10.9-3.8,17.5-3.8c5.4,0,10.2,0.6,14.4,1.8c4.2,1.1,8.1,2.8,11.6,5.1v43c0,1.4-0.3,2.3-0.8,2.7s-1.5,0.6-3,0.6h-11
		c-0.8,0-1.4-0.1-1.8-0.3c-0.4-0.3-0.8-0.7-1.1-1.3l-1.4-3.2c-2.1,2.2-4.6,3.8-7.5,4.8C1042.1,434.8,1038.6,435.3,1034.4,435.3z
		 M1042.5,420.7c2.8,0,5-0.7,6.6-2c1.6-1.4,2.4-3.3,2.4-5.8v-16.8c-1.4-0.6-3.1-1-5.2-1c-3.8,0-6.8,1.3-9.1,4
		c-2.2,2.7-3.3,6.4-3.3,11.2C1033.8,417.2,1036.7,420.7,1042.5,420.7z"/>
	<path class="st0" d="M1086.4,455.4c-2.1,0-3.5-0.4-4.4-1.3c-0.8-0.9-1.2-2.2-1.2-4.1v-61.6c3.2-2.3,7.3-4.2,12.1-5.7
		c4.9-1.5,10-2.3,15.3-2.3c21.6,0,32.5,9.2,32.5,27.5c0,8.3-2.3,14.9-6.9,19.9c-4.6,4.9-11.1,7.4-19.5,7.4c-2.4,0-4.7-0.3-6.9-0.9
		c-2.1-0.6-3.9-1.4-5.4-2.4v17.9c0,1.9-0.4,3.2-1.3,4.1c-0.9,0.9-2.3,1.3-4.4,1.3h-9.9V455.4z M1109.7,420.8c3.1,0,5.4-1.1,6.9-3.4
		c1.6-2.4,2.4-5.5,2.4-9.5c0-4.7-0.9-7.9-2.8-9.8c-1.8-1.9-4.6-2.9-8.4-2.9c-2.4,0-4.4,0.3-5.8,1v17.1c0,2.4,0.7,4.3,2,5.6
		C1105.3,420.2,1107.2,420.8,1109.7,420.8z"/>
	<path class="st1" d="M271.9,348.5c-2.1-11.2,6.5-21.6,17.9-21.6c10.1,0,18.2,8.2,18.2,18.2v22.5c2.5-0.2,5.1-0.3,7.7-0.3
		c2.5,0,5,0.1,7.4,0.2V345c0-10.1,8.2-18.2,18.2-18.2c11.4,0,20,10.4,17.9,21.6l-4.9,26.4c16.9,7.4,29.7,20.2,29.7,36.4v9.8
		c0,13.3-8.8,24.4-21.1,31.9c-12.4,7.6-29.1,12.1-47.3,12.1c-18.2,0-34.9-4.5-47.3-12.1c-12.3-7.5-21.1-18.6-21.1-31.9v-9.8
		c0-16.1,12.7-28.8,29.5-36.3L271.9,348.5z M348,378.4l5.8-30.9c1.5-7.8-4.5-15-12.4-15c-7,0-12.7,5.7-12.7,12.7v28.6
		c-1.8-0.2-3.7-0.4-5.6-0.6c-2.4-0.2-4.9-0.3-7.4-0.3c-2.6,0-5.2,0.1-7.7,0.3c-1.9,0.1-3.7,0.3-5.6,0.6v-28.6
		c0-7-5.7-12.7-12.7-12.7c-7.9,0-13.9,7.2-12.4,15l5.8,31c-18.1,6.8-30.1,18.9-30.1,32.8v9.8c0,21.2,28.1,38.4,62.8,38.4
		s62.8-17.2,62.8-38.4v-9.8C378.5,397.4,366.2,385.1,348,378.4z"/>
	<path class="st2" d="M378.5,421.1c0,21.2-28.1,38.4-62.8,38.4S253,442.3,253,421.1v-9.8h125.5V421.1z"/>
	<path class="st3" d="M277.4,347.5c-1.5-7.8,4.5-15,12.4-15c7,0,12.7,5.7,12.7,12.7v28.6c4.3-0.6,8.7-0.9,13.2-0.9
		c4.4,0,8.8,0.3,13,0.8v-28.6c0-7,5.7-12.7,12.7-12.7c7.9,0,13.9,7.2,12.4,15l-5.8,30.9c18.3,6.7,30.5,18.9,30.5,32.9
		c0,21.2-28.1,38.4-62.8,38.4c-34.7,0.1-62.7-17.1-62.7-38.3c0-13.9,12.1-26.1,30.2-32.8L277.4,347.5z"/>
	<path class="st1" d="M298.3,408.6c0,5.8-3.1,10.5-7,10.5c-3.9,0-7-4.7-7-10.5s3.1-10.5,7-10.5C295.2,398.1,298.3,402.8,298.3,408.6
		z"/>
	<path class="st1" d="M346.4,408.6c0,5.8-3.1,10.5-7,10.5s-7-4.7-7-10.5s3.1-10.5,7-10.5C343.3,398.1,346.4,402.8,346.4,408.6z"/>
</g>
</svg>
