<?xml version="1.0" encoding="utf-8"?>
<!-- Generator: Adobe Illustrator 19.0.0, SVG Export Plug-In . SVG Version: 6.00 Build 0)  -->
<svg version="1.1" id="Layer_1" xmlns="http://www.w3.org/2000/svg" xmlns:xlink="http://www.w3.org/1999/xlink" x="0px" y="0px"
	 viewBox="0 0 1500 384.1" style="enable-background:new 0 0 1500 384.1;" xml:space="preserve">
<style type="text/css">
	.st0{fill:#4D4D4D;}
	.st1{fill:#E3493C;}
</style>
<g id="Layer_4">
	<path class="st0" d="M437.7,273.9c-5-0.4-9.9-1.2-14.9-2.5v-18.2c8.3,1.2,16.2,1.7,24.5,1.7c3.3,0,7,0,10.4-0.8
		c2.1-0.4,4.1-1.7,5.8-3.3c1.7-2.1,2.5-4.1,2.5-6.6c0.4-3.7,0.8-7.9,0.8-11.6c0-5,0-9.9-0.8-14.9c-0.4-2.5-1.7-4.6-3.3-6.2
		c-2.9-1.7-6.2-2.9-9.1-3.3l-18.2-3.7c-5.8-1.2-9.9-5.4-11.6-10.8c-2.1-8.7-3.3-18.2-2.9-27.4c-0.4-8.7,1.2-17.4,4.1-25.7
		c2.1-5.8,6.6-10.4,12-13.3c6.2-2.9,13.3-4.1,20.3-3.7c5.4,0,11.2,0.4,16.6,1.2c5,0.8,8.3,1.7,10.8,2.1v18.6
		c-2.9-0.4-5.8-0.8-8.7-1.2c-4.1-0.4-8.3-0.4-12.4-0.4c-3.7,0-7.9,0.4-11.6,1.2c-2.5,0.4-4.6,2.1-5.8,3.7c-1.2,2.1-2.1,4.1-2.5,6.6
		c-0.4,3.7-0.8,7-0.8,10.8c0,4.1,0,8.3,0.8,12.4c0.4,2.1,1.2,3.7,2.5,5.4c1.7,1.2,3.7,2.1,6.2,2.5l16.2,3.3
		c4.1,0.8,7.9,2.5,11.6,4.6c3.3,2.9,5.8,6.6,6.6,10.8c2.1,7.9,2.9,15.7,2.5,24c0.4,9.5-0.8,19.1-3.7,28.2
		c-1.7,5.8-5.8,10.8-11.2,14.1c-6.2,2.9-13.3,4.6-20.3,4.1C448.5,274.7,443.1,274.3,437.7,273.9z"/>
	<path class="st0" d="M597.7,124.7V208c0.4,14.1-0.4,28.2-2.1,41.9c-0.8,7-4.1,14.1-9.5,18.6c-5,3.7-13.3,5.8-24.9,5.8
		c-11.6,0-19.9-2.1-24.9-5.8c-5.4-4.6-8.7-11.6-9.5-18.6c-1.7-14.1-2.5-28.2-2.1-41.9v-83.3h22v92.4c0,12,0.4,20.3,0.8,25.3
		c0,3.7,1.2,7,3.7,9.5c2.9,2.1,6.6,2.9,9.9,2.5c3.7,0.4,7-0.4,10.4-2.5c2.5-2.5,3.7-6.2,3.7-9.5c0.4-4.6,0.8-13.3,0.8-25.3v-92.4
		H597.7L597.7,124.7z"/>
	<path class="st0" d="M637.5,124.7h38.1c7.5-0.4,14.9,1.7,21.1,5.8c5,4.1,8.3,9.5,9.5,15.7c1.7,9.1,2.5,17.8,2.1,26.9
		c0,8.7-0.4,17.8-2.1,26.5c-1.2,6.2-4.6,12-9.5,16.2c-6.2,4.6-13.7,6.6-21.6,6.2H659v51h-22L637.5,124.7z M672.3,202.2
		c3.3,0.4,6.6-0.4,9.5-2.5c2.1-2.1,3.7-5,3.7-8.3c0.8-5.8,1.2-12,0.8-18.2c0-5.8,0-12-0.8-17.8c-0.4-3.3-1.7-6.2-3.7-8.3
		c-2.9-2.1-6.2-2.9-9.5-2.5h-12.8v57.6L672.3,202.2L672.3,202.2z"/>
	<path class="st0" d="M744.4,273.1V125.1h58.4V145h-36.1v43.1h31.5V208h-31.5v44.8h36.1v19.9L744.4,273.1z"/>
	<path class="st0" d="M891.5,273.1l-13.7-55.1h-16.6v55.1h-22V125.1h39c7.5-0.4,14.9,1.2,21.1,5.4c5,3.7,8.3,9.1,9.1,15.3
		c1.7,8.7,2.5,17.4,2.5,26.1c0.4,9.1-0.8,17.8-2.5,26.5c-1.2,6.2-5.4,11.6-10.8,14.9l16.2,59.7H891.5z M884.5,196
		c2.1-2.1,3.7-5,3.7-7.9c0.8-5.4,1.2-11.2,0.8-16.6c0-5.4,0-11.2-0.8-16.6c-0.4-2.9-1.7-5.8-4.1-7.9c-2.9-1.7-6.2-2.5-9.5-2.5h-13.3
		V198h13.7C878.2,198.9,881.6,198,884.5,196z"/>
	<path class="st1" d="M1009.2,273.1l-6.2-35.6h-29l-6.2,35.6h-21.6l26.5-147.9h31.9l26.9,147.9H1009.2z M989.3,149.1h-1.7L976,217.9
		h24L989.3,149.1z"/>
	<path class="st1" d="M1066.4,273.1V125.1h22.4v128.1h32.3v20.3L1066.4,273.1L1066.4,273.1z"/>
	<path class="st1" d="M1190.3,209.6v-19.5h33.6v80c-5,1.2-9.9,2.5-14.9,3.3c-5.4,0.8-11.2,1.2-16.6,1.2c-11.2,0-19.5-2.1-24.9-5.8
		c-5.4-3.7-9.1-11.2-11.6-22c-2.5-15.7-3.7-31.9-3.3-48.1c-0.4-16.2,0.8-32.3,3.3-48.1c2.1-10.4,6.2-17.8,12-22
		c5.8-4.1,14.5-5.8,26.1-5.8c5,0,9.9,0.4,15.3,1.2c5,0.8,9.5,1.7,14.5,2.9v18.6c-4.1-0.8-8.3-1.2-12.8-1.7c-3.3-0.4-6.6-0.8-9.9-0.8
		c-5.8-0.4-12,0.4-17.4,2.9c-3.3,1.7-5.4,6.6-6.6,14.1c-1.7,12.8-2.5,26.1-2.1,39c0,17.4,0.4,29.8,1.2,37.3c0,5.4,1.7,10.8,5,14.9
		c3.3,2.9,7.9,4.6,12.4,3.7c3.7,0,7.5-0.4,11.2-1.2v-44.3L1190.3,209.6L1190.3,209.6z"/>
	<path class="st1" d="M1272.4,268.5c-5.4-4.1-8.7-11.2-9.9-20.7c-1.7-16.2-2.5-32.3-2.1-48.5c-0.4-16.2,0.4-32.3,2.1-48.5
		c0.4-7.9,4.1-15.3,9.9-20.7c5.4-4.1,13.7-6.2,26.1-6.2s20.7,2.1,26.1,6.2c5.8,5.4,9.5,12.8,9.9,20.7c1.7,16.2,2.5,32.3,2.1,48.5
		c0.4,16.2-0.4,32.3-2.1,48.5c-1.2,9.9-4.6,16.6-9.9,20.7s-14.1,6.2-26.1,6.2C1286,274.7,1277.3,272.6,1272.4,268.5z M1309.2,251.9
		c2.1-2.1,3.3-6.6,4.1-13.7c0.8-7.5,1.2-20.3,1.2-39.4c0-18.6-0.4-31.9-1.2-39c-0.8-7-2.1-12-4.1-13.7c-3.3-2.1-7-3.3-10.8-2.9
		c-3.7-0.4-7.9,0.4-10.8,2.9c-2.1,1.7-3.3,6.6-4.1,13.7c-0.8,7-1.2,20.3-1.2,39s0.4,31.9,1.2,39.4s2.1,12,4.1,13.7
		c3.3,2.1,7,3.3,10.8,2.9C1302.2,255.2,1305.9,254,1309.2,251.9z"/>
	<path class="st1" d="M1388.4,273.9c-5-0.4-9.9-1.2-14.9-2.5v-18.2c8.3,1.2,16.2,1.7,24.5,1.7c3.3,0,7,0,10.4-0.8
		c2.1-0.4,4.1-1.7,5.8-3.3c1.7-2.1,2.5-4.1,2.5-6.6c0.4-3.7,0.8-7.9,0.8-11.6c0-5,0-9.9-0.8-14.9c-0.4-2.5-1.7-4.6-3.3-6.2
		c-2.9-1.7-5.8-2.9-9.1-3.3l-18.2-3.7c-5.8-0.8-10.4-5.4-11.6-10.8c-2.1-8.7-3.3-18.2-2.9-27.4c-0.4-8.7,1.2-17.4,4.1-25.7
		c2.1-5.8,6.2-10.4,12-13.3c6.2-2.9,13.3-4.1,20.3-3.7c5.4,0,11.2,0.4,16.6,1.2c5,0.8,8.3,1.7,10.8,2.1v18.6
		c-2.9-0.4-5.8-0.8-8.7-1.2c-4.1-0.4-8.3-0.4-12.4-0.4c-3.7,0-7.9,0.4-11.6,1.2c-2.5,0.4-4.6,2.1-5.8,3.7c-1.2,2.1-2.1,4.1-2.5,6.6
		c-0.4,3.7-0.8,7-0.8,10.8c0,4.1,0,8.3,0.8,12.4c0,2.1,1.2,3.7,2.5,5.4c1.7,1.2,3.7,2.1,6.2,2.5l16.2,3.3c4.1,0.8,7.9,2.5,11.6,4.6
		c3.3,2.9,5.8,6.6,6.6,10.8c2.1,7.9,2.9,15.7,2.5,24c0.4,9.5-0.8,19.1-3.7,28.2c-1.7,5.8-5.8,10.8-11.2,14.1
		c-6.2,2.9-13.3,4.6-20.3,4.1C1399.2,274.7,1393.8,274.3,1388.4,273.9z"/>
	<path class="st1" d="M194.8,241.1c5-1.7,37.7,3.7,41.9,6.6c13.7,9.5,33.6,14.9,41.9,5c8.3-9.9-0.4-26.9-13.3-39.8
		c-3.7-3.7-16.2-34-15.7-39.4c1.7-17-3.7-37.3-16.2-39.4c-12.4-2.1-24.5,16.2-27.4,31.5c-1.2,5.4-22,31.1-26.9,33.2
		c-15.3,7-29.4,21.6-24.9,33.6C158.8,244.5,180.3,245.3,194.8,241.1z"/>
	<path class="st1" d="M251.6,66.3c20.3,0.8,29,42.7,25.7,75c-1.2,10.4,23.2,68.8,27.4,78.3c2.9,5.8,7.5,10.4,13.3,13.3
		c-15.7-42.3-17-76.3-14.1-84.1c13.3-36.9,7.5-86.2-12.4-97.4c-13.7-7.9-42.7-10.8-61.3,19.9C236.3,66.7,243.8,65,251.6,66.3z"/>
	<path class="st1" d="M87.9,243.6c-9.5-18.2,22.4-46.4,52.2-60.1c9.5-4.1,48.1-54.3,54.3-62.6c3.3-5.4,5-11.6,5-18.2
		c-29,34.8-57.6,52.6-65.9,54.3c-38.5,6.6-78.3,36.5-78.3,59.7c0,15.3,12,42.7,48.1,43.5C96.2,256.5,90.8,250.7,87.9,243.6z"/>
	<path class="st1" d="M324.6,300c-11.2,17.4-51.4,4.1-77.9-15.3c-8.7-6.2-71.3-14.5-81.6-15.3c-6.2-0.4-12.8,1.2-18.2,5
		c44.3,7.5,74.6,23.2,80,29.8c25.3,29.8,70.9,49.3,90.8,38.1c13.3-7.9,30.7-31.5,13.7-63.4C331.6,286.3,329.5,293.8,324.6,300z"/>
</g>
</svg>
