<?xml version="1.0" standalone="no"?>
<!DOCTYPE svg PUBLIC "-//W3C//DTD SVG 20010904//EN"
 "http://www.w3.org/TR/2001/REC-SVG-20010904/DTD/svg10.dtd">
<svg version="1.0" xmlns="http://www.w3.org/2000/svg"
 width="512.000000pt" height="512.000000pt" viewBox="0 0 512.000000 512.000000"
 preserveAspectRatio="xMidYMid meet">

<g transform="translate(0.000000,512.000000) scale(0.100000,-0.100000)"
fill="#000000" stroke="none">
<path d="M320 5106 c-152 -41 -275 -167 -309 -317 -7 -28 -11 -360 -11 -901 0
-811 1 -859 19 -917 25 -82 60 -138 119 -193 60 -57 116 -86 196 -103 33 -7
54 -15 46 -18 -8 -3 -37 -12 -64 -21 -27 -9 -68 -27 -91 -40 -54 -32 -146
-132 -173 -188 -53 -109 -52 -93 -52 -1078 0 -995 -1 -969 56 -1082 34 -67
125 -158 192 -192 113 -57 88 -56 1062 -56 974 0 949 -1 1062 56 107 54 217
198 234 307 8 47 20 47 28 0 17 -109 127 -253 234 -307 113 -57 94 -56 1002
-56 908 0 889 -1 1002 56 67 34 158 125 192 192 57 113 56 87 56 1082 0 985 1
969 -52 1078 -27 56 -119 156 -173 188 -23 13 -64 31 -91 40 -27 9 -56 18 -64
21 -8 3 13 11 46 18 80 17 136 46 196 103 59 55 94 111 119 193 18 58 19 106
19 917 0 541 -4 873 -11 901 -35 153 -167 285 -320 320 -69 16 -4410 13 -4469
-3z m4456 -52 c62 -21 104 -50 104 -73 0 -9 -67 -83 -148 -164 l-149 -147
-2018 0 -2018 0 -149 147 c-81 81 -148 155 -148 164 0 22 41 51 100 72 40 14
274 16 2211 16 1987 1 2170 0 2215 -15z m252 -231 c53 -76 52 -63 52 -933 0
-723 -2 -812 -16 -856 -21 -62 -50 -104 -73 -104 -9 0 -83 67 -164 148 l-147
149 0 663 0 663 147 149 c81 81 155 148 164 148 10 0 26 -12 37 -27z m-468
-218 c62 -32 60 -12 60 -715 0 -703 2 -683 -60 -715 -26 -13 -258 -15 -2005
-15 -1812 0 -1979 1 -2005 16 -62 37 -60 9 -60 714 0 703 -2 675 59 713 24 15
193 16 2004 17 1749 0 1981 -2 2007 -15z m-2284 -2001 c62 -21 104 -50 104
-73 0 -9 -67 -83 -148 -164 l-149 -147 -768 0 -768 0 -149 147 c-81 81 -148
155 -148 164 0 22 41 51 100 72 39 14 157 16 961 16 825 1 920 -1 965 -15z
m2500 0 c62 -21 104 -50 104 -73 0 -9 -67 -83 -148 -164 l-149 -147 -708 0
-708 0 -149 147 c-81 81 -148 155 -148 164 0 22 41 51 100 72 39 13 152 16
901 16 770 1 860 -1 905 -15z m-2248 -231 c53 -77 52 -54 52 -1033 0 -816 -2
-911 -16 -956 -21 -62 -50 -104 -73 -104 -9 0 -83 67 -164 148 l-147 149 0
763 0 763 147 149 c81 81 155 148 164 148 10 0 26 -12 37 -27z m2500 0 c53
-77 52 -54 52 -1033 0 -816 -2 -911 -16 -956 -21 -62 -50 -104 -73 -104 -9 0
-83 67 -164 148 l-147 149 0 763 0 763 147 149 c81 81 155 148 164 148 10 0
26 -12 37 -27z m-2958 -218 c62 -32 60 -2 60 -815 0 -813 2 -783 -60 -815 -25
-13 -127 -15 -765 -15 -667 0 -738 2 -761 16 -56 37 -54 11 -54 814 0 517 3
748 11 763 6 12 23 32 37 44 l27 23 738 0 c640 0 742 -2 767 -15z m2526 -19
l34 -34 0 -762 0 -762 -34 -34 -34 -34 -685 0 c-679 0 -685 0 -711 21 -58 46
-56 13 -56 809 0 796 -2 763 56 809 26 21 32 21 711 21 l685 0 34 -34z"/>
</g>
</svg>
